<svg width="150" height="45" viewBox="0 0 150 45" fill="none" xmlns="http://www.w3.org/2000/svg">
<g clip-path="url(#clip0_360_625)">
<path d="M16.5751 41.9175C14.3117 40.2891 11.3095 39.7281 9.17573 43.7524C8.95961 44.1576 9.25432 44.6484 9.71801 44.6484H16.5751H19.1333V33.0391H16.5751V41.9175Z" fill="#261E46"/>
<path d="M23.5308 42.0539V33.0391H20.9727V44.6484H29.8024C30.27 44.6484 30.5608 44.1537 30.3408 43.7446C28.3721 40.0982 25.6253 40.5735 23.5347 42.05L23.5308 42.0539Z" fill="#261E46"/>
<path d="M45.3438 24.2326V6.16406H51.5446C53.7884 6.16406 55.4506 6.57312 56.5313 7.39512C57.6119 8.21324 58.1503 9.34301 58.1503 10.7805C58.1503 11.5987 57.9734 12.3272 57.6198 12.9622C57.2661 13.5972 56.7435 14.0842 56.0519 14.4192C57.0971 14.7542 57.8516 15.3035 58.3153 16.0632C58.779 16.8229 59.0108 17.7579 59.0108 18.8604C59.0108 19.6317 58.8812 20.3408 58.6179 20.9913C58.3546 21.6419 57.942 22.2146 57.3761 22.6977C56.8103 23.1847 56.0754 23.5587 55.1756 23.8275C54.2718 24.0963 53.1793 24.2287 51.8983 24.2287H45.3438V24.2326ZM51.47 11.3104H50.2793V13.8465H51.4935C51.8315 13.8465 52.1105 13.7959 52.3266 13.6946C52.5467 13.5933 52.7078 13.4453 52.806 13.2427C52.9082 13.0401 52.9593 12.8063 52.9593 12.5414C52.9593 12.222 52.9003 11.9765 52.7825 11.8012C52.6646 11.6259 52.4956 11.5013 52.2755 11.4233C52.0555 11.3493 51.7843 11.3104 51.466 11.3104H51.47ZM52.0005 17.4813H50.2793V20.1927H52.0515C52.472 20.1927 52.81 20.1343 53.0654 20.0174C53.3169 19.9005 53.5094 19.7291 53.6352 19.5032C53.7609 19.2772 53.8238 19.024 53.8238 18.7396C53.8238 18.3539 53.6705 18.05 53.368 17.8241C53.0654 17.5981 52.6095 17.4852 52.0005 17.4852V17.4813Z" fill="#261E46"/>
<path d="M59.7696 24.2349V10.2569H64.5008V11.8892H64.6029C64.9566 11.188 65.546 10.6815 66.3752 10.3698C67.2004 10.0621 68.1631 9.90625 69.2595 9.90625L68.9294 15.3759C67.3104 15.2941 66.1787 15.5668 65.5382 16.2057C64.8977 16.8407 64.5754 17.9861 64.5754 19.6418V24.2349H59.7656H59.7696Z" fill="#261E46"/>
<path d="M77.1059 15.6525C77.1059 15.3681 76.9212 15.1538 76.5479 15.0136C76.1746 14.8734 75.6363 14.7993 74.9289 14.7993C74.0998 14.7993 73.2982 14.9045 72.5123 15.1149C71.7263 15.3253 71.0151 15.5707 70.3746 15.8551L70.0445 11.0867C70.6536 10.7672 71.4159 10.4945 72.3354 10.2569C73.2549 10.0231 74.2806 9.90625 75.4123 9.90625C76.9488 9.90625 78.2023 10.1361 79.169 10.5958C80.1396 11.0555 80.8587 11.7373 81.3342 12.6411C81.8057 13.5449 82.0415 14.6825 82.0415 16.0538V24.2349H77.1059V22.7779C76.5833 23.3622 76.0096 23.8102 75.3848 24.1219C74.76 24.4297 73.9741 24.5855 73.031 24.5855C71.8992 24.5855 70.9679 24.2933 70.2331 23.709C69.4983 23.1246 69.1328 22.2519 69.1328 21.0988C69.1328 20.3313 69.2861 19.6885 69.5886 19.1782C69.8912 18.6678 70.2999 18.2549 70.8147 17.9354C71.3295 17.616 71.9032 17.3666 72.5358 17.1835C73.1685 17.0004 73.8208 16.8485 74.4967 16.7316C75.035 16.6498 75.4516 16.568 75.7384 16.494C76.0253 16.42 76.2847 16.346 76.5244 16.2797C76.7601 16.1979 76.9173 16.1083 76.992 16.0148C77.0666 15.9213 77.1059 15.8005 77.1059 15.6525ZM77.1059 18.6639C76.9723 18.7302 76.7994 18.812 76.5872 18.9016C76.375 18.9951 76.1275 19.0808 75.8406 19.1665C75.3691 19.2834 74.9761 19.4314 74.6617 19.6067C74.3513 19.782 74.1941 20.1054 74.1941 20.5729C74.1941 20.9235 74.3199 21.1806 74.5753 21.3364C74.8268 21.4962 75.1411 21.5741 75.5105 21.5741C75.762 21.5741 75.9899 21.5312 76.1943 21.4494C76.3947 21.3676 76.5754 21.2468 76.7248 21.0988C76.878 20.9469 77.0038 20.7715 77.1059 20.5729V18.6639Z" fill="#261E46"/>
<path d="M85.8373 9.45403C85.0278 9.45403 84.348 9.2047 83.7978 8.70215C83.2477 8.19959 82.9766 7.54121 82.9766 6.7192C82.9766 5.8972 83.2477 5.21933 83.7861 4.72457C84.3244 4.22981 85.0082 3.98438 85.8373 3.98438C86.6664 3.98438 87.3423 4.22981 87.8768 4.72457C88.4072 5.21933 88.6745 5.88161 88.6745 6.7192C88.6745 7.55679 88.3994 8.19959 87.8532 8.70215C87.303 9.2047 86.635 9.45403 85.8412 9.45403H85.8373ZM83.4324 24.2346V10.2566H88.2422V24.2346H83.4324Z" fill="#261E46"/>
<path d="M89.7637 24.2349V10.2569H94.4949V11.8385H94.5971C95.0529 11.2542 95.5952 10.7828 96.2279 10.4322C96.8605 10.0816 97.6582 9.90625 98.621 9.90625C99.7016 9.90625 100.617 10.1361 101.368 10.5958C102.118 11.0555 102.692 11.7061 103.089 12.5398C103.486 13.3774 103.682 14.363 103.682 15.5006V24.231H98.8725V17.5575C98.8725 17.0238 98.7978 16.5563 98.6446 16.1667C98.4913 15.7733 98.2555 15.4694 97.9372 15.2512C97.615 15.0331 97.2024 14.924 96.6955 14.924C95.9685 14.924 95.4341 15.1616 95.0883 15.6408C94.7425 16.1161 94.5696 16.7472 94.5696 17.5342V24.2349H89.7598H89.7637Z" fill="#261E46"/>
<path d="M104.567 23.6817L104.897 19.9184C105.337 20.1015 105.986 20.2768 106.846 20.4443C107.707 20.6118 108.583 20.6936 109.479 20.6936C110.018 20.6936 110.45 20.6586 110.768 20.5923C111.09 20.5261 111.247 20.382 111.247 20.1677C111.247 20.0508 111.192 19.9573 111.082 19.8911C110.972 19.8249 110.741 19.7509 110.387 19.6651C110.033 19.5833 109.483 19.4626 108.74 19.3145C107.844 19.1314 107.078 18.8743 106.438 18.551C105.797 18.2237 105.302 17.764 104.956 17.1719C104.61 16.5797 104.438 15.8044 104.438 14.85C104.438 13.8955 104.669 13.0969 105.133 12.3528C105.597 11.6087 106.296 11.0165 107.235 10.5724C108.171 10.1283 109.349 9.90625 110.768 9.90625C111.644 9.90625 112.466 9.98806 113.224 10.1556C113.982 10.3231 114.556 10.4984 114.945 10.6815L114.615 15.4499C114.077 15.2668 113.452 15.111 112.741 14.9863C112.033 14.8617 111.33 14.7993 110.638 14.7993C110.08 14.7993 109.699 14.8383 109.487 14.9123C109.275 14.9863 109.169 15.1188 109.169 15.3019C109.169 15.4188 109.216 15.5162 109.306 15.5902C109.401 15.6642 109.613 15.7382 109.951 15.8044C110.289 15.8707 110.819 15.9642 111.546 16.081C112.811 16.2836 113.837 16.681 114.623 17.2731C115.409 17.8653 115.802 18.7496 115.802 19.9223C115.802 21.4611 115.283 22.622 114.246 23.409C113.208 24.1959 111.66 24.5894 109.601 24.5894C108.52 24.5894 107.546 24.4959 106.677 24.3128C105.809 24.1297 105.106 23.9193 104.563 23.6856L104.567 23.6817Z" fill="#261E46"/>
<path d="M117.35 18.535V14.7717H115.299V10.2565H117.727L118.234 6.86719H122.156V10.2565H125.622V14.7717H122.156V18.235C122.156 18.9558 122.293 19.4622 122.572 19.7544C122.851 20.0466 123.268 20.1946 123.826 20.1946C124.215 20.1946 124.549 20.1751 124.824 20.1323C125.103 20.0894 125.366 20.0349 125.622 19.9686L125.952 24.2345C125.563 24.3514 125.095 24.441 124.549 24.4994C123.999 24.5579 123.457 24.589 122.918 24.589C121.449 24.589 120.317 24.328 119.515 23.8099C118.714 23.2917 118.152 22.5749 117.833 21.6633C117.511 20.7517 117.354 19.7115 117.354 18.5389L117.35 18.535Z" fill="#261E46"/>
<path d="M138.71 24.0323C138.101 24.2349 137.449 24.3751 136.75 24.4569C136.05 24.5387 135.319 24.5816 134.561 24.5816C132.824 24.5816 131.307 24.3089 130.018 23.7674C128.725 23.2259 127.727 22.4039 127.02 21.3091C126.313 20.2144 125.959 18.847 125.959 17.2069C125.959 15.8005 126.254 14.5461 126.843 13.4436C127.433 12.3411 128.262 11.4723 129.323 10.8451C130.388 10.2179 131.633 9.90234 133.068 9.90234C134.148 9.90234 135.095 10.0893 135.917 10.4672C136.734 10.8451 137.418 11.3672 137.968 12.0372C138.514 12.7073 138.931 13.4826 139.21 14.3708C139.489 15.259 139.626 16.2018 139.626 17.2069C139.626 17.5264 139.618 17.8419 139.602 18.1614C139.587 18.4808 139.551 18.7808 139.5 19.0652H131.374C131.594 19.5015 131.893 19.8365 132.274 20.0703C132.655 20.304 133.115 20.4677 133.653 20.5612C134.191 20.6547 134.801 20.6975 135.476 20.6975C136.034 20.6975 136.537 20.6586 136.993 20.5845C137.449 20.5105 137.897 20.4053 138.333 20.269L138.714 24.0323H138.71ZM133.166 14.2968C132.726 14.2968 132.305 14.4331 131.901 14.7097C131.496 14.9863 131.225 15.4928 131.091 16.2291H135.115C135.099 15.8629 135.005 15.5356 134.836 15.2512C134.667 14.9668 134.439 14.737 134.152 14.5617C133.865 14.3864 133.535 14.2968 133.166 14.2968Z" fill="#261E46"/>
<path d="M140.51 24.2349V10.2569H145.241V11.8892H145.343C145.697 11.188 146.286 10.6815 147.115 10.3698C147.941 10.0621 148.903 9.90625 150 9.90625L149.67 15.3759C148.051 15.2941 146.919 15.5668 146.278 16.2057C145.638 16.8407 145.316 17.9861 145.316 19.6418V24.2349H140.506H140.51Z" fill="#261E46"/>
<path d="M53.6705 44.6467L50.0278 34.8839V44.6467H45.3438V26.5781H51.5446L55.7218 38.5225L60.2015 26.5781H66.4024V44.6467H61.5926V34.8605L57.718 44.6467H53.6666H53.6705Z" fill="#261E46"/>
<path d="M75.2603 36.0705C75.2603 35.7861 75.0756 35.5718 74.7023 35.4316C74.3329 35.2913 73.7906 35.2173 73.0833 35.2173C72.2581 35.2173 71.4525 35.3225 70.6666 35.5329C69.8807 35.7432 69.1694 35.9887 68.5289 36.2731L68.1988 31.5046C68.8079 31.1852 69.5702 30.9125 70.4897 30.6748C71.4093 30.4411 72.4349 30.3242 73.5627 30.3242C75.0991 30.3242 76.3527 30.5541 77.3194 31.0138C78.29 31.4735 79.0091 32.1552 79.4846 33.059C79.9561 33.9629 80.1919 35.1004 80.1919 36.4717V44.6529H75.2563V43.1958C74.7337 43.7802 74.16 44.2282 73.5352 44.5399C72.9104 44.8476 72.1244 45.0035 71.1813 45.0035C70.0496 45.0035 69.1183 44.7113 68.3835 44.1269C67.6487 43.5426 67.2832 42.6699 67.2832 41.5168C67.2832 40.7493 67.4365 40.1065 67.739 39.5961C68.0416 39.0858 68.4503 38.6728 68.9651 38.3534C69.4798 38.0339 70.0536 37.7846 70.6862 37.6015C71.3189 37.4184 71.9712 37.2665 72.6471 37.1496C73.1854 37.0678 73.598 36.986 73.8888 36.912C74.1757 36.8379 74.439 36.7639 74.6747 36.6977C74.9105 36.6159 75.0677 36.5263 75.1424 36.4328C75.217 36.3393 75.2563 36.2185 75.2563 36.0705H75.2603ZM75.2603 39.0819C75.1266 39.1481 74.9537 39.2299 74.7415 39.3195C74.5294 39.413 74.2818 39.4988 73.9949 39.5845C73.5234 39.7013 73.1304 39.8494 72.8161 40.0247C72.5056 40.2 72.3484 40.5233 72.3484 40.9908C72.3484 41.3414 72.4742 41.5986 72.7296 41.7544C72.9811 41.9141 73.2955 41.992 73.6648 41.992C73.9163 41.992 74.1443 41.9492 74.3486 41.8674C74.5529 41.7856 74.7298 41.6648 74.8791 41.5168C75.0323 41.3648 75.1581 41.1895 75.2603 40.9908V39.0819Z" fill="#261E46"/>
<path d="M82.6235 38.953V35.1897H80.5723V30.6745H83.0008L83.5077 27.2852H87.4294V30.6745H90.8953V35.1897H87.4294V38.653C87.4294 39.3737 87.5669 39.8802 87.8459 40.1724C88.1249 40.4645 88.5415 40.6126 89.0995 40.6126C89.4885 40.6126 89.8225 40.5931 90.0976 40.5502C90.3766 40.5074 90.6399 40.4528 90.8953 40.3866L91.2254 44.6525C90.8363 44.7694 90.3687 44.859 89.8225 44.9174C89.2724 44.9758 88.7301 45.007 88.1917 45.007C86.7221 45.007 85.5903 44.746 84.7887 44.2278C83.9871 43.7097 83.4251 42.9929 83.1069 42.0813C82.7846 41.1697 82.6274 40.1295 82.6274 38.9569L82.6235 38.953Z" fill="#261E46"/>
<path d="M100.974 37.7251C100.974 37.1914 100.899 36.7239 100.746 36.3343C100.593 35.9409 100.357 35.637 100.039 35.4188C99.7166 35.2007 99.304 35.0916 98.797 35.0916C98.0701 35.0916 97.5356 35.3292 97.1898 35.8084C96.844 36.2837 96.6711 36.9187 96.6711 37.7018V44.6518H91.8613V25.582H96.5925V32.0062H96.6947C97.1348 31.4724 97.6614 31.0556 98.2783 30.7634C98.8953 30.4712 99.6655 30.3232 100.593 30.3232C101.689 30.3232 102.624 30.553 103.403 31.0127C104.177 31.4724 104.77 32.123 105.175 32.9567C105.579 33.7943 105.784 34.7799 105.784 35.9175V44.6479H100.974V37.7212V37.7251Z" fill="#261E46"/>
<path d="M36.8916 23.5262C36.8994 23.499 36.9034 23.4717 36.9112 23.4444C38.6481 22.2367 39.7327 20.1876 39.5794 17.9319C39.4261 15.6763 38.0783 13.7907 36.1921 12.8207C36.1724 12.77 36.1528 12.7194 36.1332 12.6687C36.8208 10.678 36.4829 8.39117 35.025 6.65756C33.5671 4.92394 31.3587 4.18375 29.2603 4.49541C29.2092 4.46424 29.1621 4.43307 29.1149 4.40191C28.4901 2.39169 26.8633 0.739888 24.6548 0.190585C22.4464 -0.362614 20.2223 0.323041 18.7133 1.79954C18.6544 1.79954 18.5954 1.80733 18.5404 1.81512C16.8428 0.552891 14.544 0.163314 12.4299 1.0048C10.3158 1.84629 8.9208 3.69677 8.575 5.77322C8.53177 5.80828 8.49248 5.84334 8.44925 5.8784C6.32728 5.84334 4.23281 6.86793 3.0225 8.78075C1.80826 10.6936 1.78075 13.0038 2.73171 14.8854C2.72385 14.9127 2.71599 14.94 2.70813 14.9672C2.70027 14.9945 2.69634 15.0218 2.68848 15.049C0.94375 16.2606 -0.136885 18.3059 0.0163686 20.5615C0.169622 22.8172 1.51747 24.7027 3.40367 25.6728C3.42332 25.7234 3.44296 25.7741 3.46261 25.8247C2.77494 27.8155 3.11288 30.1023 4.57075 31.8359C6.02863 33.5695 8.23705 34.3097 10.3355 33.998C10.3865 34.0292 10.4337 34.0604 10.4808 34.0915C11.1056 36.1018 12.7325 37.7536 14.9409 38.3029C17.1493 38.8561 19.3735 38.1704 20.8824 36.6939C20.9414 36.6939 21.0003 36.6861 21.0553 36.6783C22.7529 37.9406 25.0517 38.3301 27.1658 37.4887C29.28 36.6472 30.675 34.7967 31.0208 32.7163C31.064 32.6813 31.1033 32.6462 31.1465 32.6112C33.2685 32.6462 35.363 31.6216 36.5733 29.7088C37.7875 27.796 37.815 25.4858 36.8641 23.6041C36.8719 23.5769 36.8798 23.5496 36.8876 23.5223L36.8916 23.5262Z" fill="#EC6957"/>
<path d="M19.287 33.1876C20.7723 32.9577 21.9434 31.902 22.297 30.3554C22.297 30.3554 22.4581 29.5606 22.0062 29.2412C21.908 29.171 21.7822 29.1204 21.6251 29.1048C20.7645 29.0074 20.1515 31.602 18.2495 31.2241C16.2179 30.7527 17.1178 28.3335 16.0568 27.9439C15.2827 27.7257 15.0273 28.6373 15.0273 28.6373C14.5675 30.6592 15.8446 32.6811 17.8762 33.1369C18.3517 33.246 18.8311 33.2577 19.287 33.1876Z" fill="#261E46"/>
<path d="M25.4866 10.4688C24.0248 10.5155 23.0188 11.0765 22.3547 11.6803C22.3036 11.7271 22.2565 11.7699 22.2133 11.8167C21.8203 12.2063 21.7064 12.7906 21.9421 13.2893C21.9421 13.2893 21.9421 13.2932 21.9421 13.2971C21.9421 13.301 21.9461 13.3049 21.95 13.3127C22.1111 13.6516 22.5748 13.7139 22.8145 13.4217C22.8892 13.3282 22.9717 13.2347 23.0542 13.1529C23.5022 12.7049 24.2016 12.2179 25.1172 12.1868C27.0074 12.1245 28.5713 14.4658 28.925 17.8824C29.2511 21.4353 27.5732 23.8819 25.797 23.9403C24.0562 23.9987 23.2467 21.2912 22.394 18.4278C21.3055 14.7814 20.0716 10.648 16.4839 10.7687C12.0278 10.9168 9.9962 15.3501 10.3499 19.4524C10.8175 23.9481 13.8 25.9038 16.3739 25.822C17.9772 25.7713 19.0146 24.8831 19.604 24.139C19.9263 23.7221 20.0834 23.2118 19.887 22.795C19.6905 22.3781 19.2504 22.4015 18.9046 22.8417C18.4094 23.4728 17.596 24.2442 16.5468 24.2442C15.085 24.2909 13.2302 22.9157 12.8137 18.8836C12.4168 15.0541 14.4759 12.44 16.0124 12.3894C17.5135 12.3387 18.3387 14.906 19.2071 17.6214C20.4135 21.3808 21.781 25.6467 25.4866 25.522C27.6597 25.4519 29.3769 24.5091 30.4575 22.7989C31.3888 21.3224 31.7857 19.3745 31.5735 17.3136C31.212 13.8269 29.0036 10.3558 25.4827 10.4726L25.4866 10.4688Z" fill="#261E46"/>
<path d="M13.9027 9.04567C15.0659 7.32374 17.0267 9.01451 17.7694 8.16523C18.2488 7.52632 17.4786 6.96533 17.4786 6.96533C15.7339 5.82387 13.3801 6.29916 12.2287 8.02498C11.2935 9.49758 12.8692 10.678 13.9027 9.04567Z" fill="#261E46"/>
<path d="M25.5744 8.19344C27.551 7.51947 28.0815 10.0439 29.1896 9.81019C29.9598 9.58813 29.6926 8.68041 29.6926 8.68041C29.001 6.72474 26.8397 5.69236 24.871 6.37412C23.2284 6.98576 23.7629 8.87131 25.5783 8.18955L25.5744 8.19344Z" fill="#261E46"/>
</g>
<defs>
<clipPath id="clip0_360_625">
<rect width="150" height="45" fill="white"/>
</clipPath>
</defs>
</svg>
